<svg width="154" height="115" viewBox="0 0 154 115" fill="none" xmlns="http://www.w3.org/2000/svg">
<path d="M153.339 57.6696C153.333 68.1478 150.371 78.4222 144.779 87.367C139.186 96.3118 131.177 103.582 121.631 108.38C121.202 108.6 120.769 108.811 120.334 109.013L120.243 109.057L119.932 109.202C119.676 109.325 119.423 109.44 119.162 109.554C117.53 110.284 115.857 110.939 114.142 111.52C113.168 111.851 112.184 112.157 111.19 112.439L110 112.76C96.7631 116.2 82.7094 115.006 70.2802 109.387C69.771 109.154 69.2617 108.916 68.7615 108.67L67.8602 108.23C58.9395 103.669 51.3722 96.9437 45.8867 88.7018C45.3099 87.8428 44.7601 86.9634 44.2373 86.0634C43.7717 85.2806 43.321 84.4876 42.8854 83.6844C38.6516 75.6358 36.4499 66.7166 36.4637 57.6696C36.4637 56.6025 36.4937 55.5413 36.5538 54.4859C37.3987 39.6598 44.1378 25.7402 55.3378 15.6877C66.5378 5.63513 81.315 0.24279 96.5265 0.657521C111.738 1.07225 126.184 7.26133 136.791 17.9084C147.398 28.5555 153.33 42.8206 153.325 57.6696H153.339Z" fill="url(#paint0_linear)"/>
<path d="M83.4255 55.6424C83.4255 55.6424 70.3568 49.5961 69.2211 41.2763C68.0855 32.9564 68.8832 25.006 75.395 22.7809C75.395 22.7809 79.5139 9.96703 94.1148 15.1163C108.716 20.2657 106.413 35.7268 114.394 37.5781C122.375 39.4294 137.278 31.6328 140.121 41.1443C142.965 50.6558 133.614 50.0754 127.4 58.1489C121.185 66.2225 130.784 70.4615 129.026 76.0198C127.269 81.5781 120.631 85.3994 120.631 85.3994L83.4255 55.6424Z" fill="url(#paint1_linear)"/>
<path d="M65.5304 73.8914L69.2212 83.6843H69.6223L75.395 58.1489C71.7493 61.2666 65.5304 73.8914 65.5304 73.8914Z" fill="url(#paint2_linear)"/>
<path d="M59.0501 87.4002L56.7113 88.5479C53.8091 90.2452 49.4739 89.7615 49.4739 89.7615C51.8172 92.334 65.0122 95.245 68.721 95.1703L69.406 86.059H61.1862L59.0501 87.4002Z" fill="url(#paint3_linear)"/>
<path d="M120.333 109L120.243 109.044L119.932 109.189C119.676 109.312 119.423 109.427 119.162 109.541C117.53 110.271 115.857 110.926 114.142 111.506C113.168 111.838 112.184 112.144 111.19 112.426L110 112.747C96.7631 116.186 82.7094 114.993 70.2802 109.374C69.771 109.141 69.2617 108.903 68.7615 108.657L67.8602 108.217C67.9864 104.444 68.1802 99.9282 68.4641 95.1659C68.6444 92.1889 68.8652 89.1151 69.1265 86.0633C69.1941 85.2674 69.2662 84.4759 69.3383 83.6844C70.4019 72.4359 72.1053 62.0054 74.8362 58.6898L74.8768 58.6458C75.2235 58.1802 75.7126 57.8338 76.2738 57.6564C80.2169 56.7417 82.9974 56.4339 83.4346 55.6424C83.8717 54.8509 83.4346 53.2942 83.4346 53.2942L84.2187 53.1887C85.3588 53.0216 87.5715 52.6698 89.667 52.1421C89.6802 52.1461 89.6943 52.1461 89.7075 52.1421C91.5597 51.6716 93.3127 51.0647 94.1689 50.3348L95.9265 54.8948C95.9265 54.8948 109.144 53.2634 114.304 58.1665C114.336 58.1893 114.364 58.2159 114.389 58.2456C114.444 58.2936 114.495 58.345 114.543 58.3995C114.85 58.7163 115.123 59.0625 115.358 59.4329C117.039 62.0713 118.229 72.6602 119.054 84.1461C119.243 86.7845 119.414 89.5109 119.563 92.1801C119.905 98.3452 120.162 104.317 120.333 109Z" fill="url(#paint4_linear)"/>
<path opacity="0.15" d="M120.243 109.057L119.932 109.202C119.676 109.325 119.423 109.44 119.162 109.554C117.53 110.284 115.857 110.939 114.142 111.52C113.168 111.851 112.184 112.157 111.19 112.439C105.102 106.111 102.686 97.8966 102.686 97.8966L119.554 92.1801L120.243 109.057Z" fill="black"/>
<path d="M114.299 58.1489C120.406 63.9974 121.735 76.2748 120.608 85.4125C119.482 94.5502 117.391 103.108 113.047 102.844C108.702 102.58 93.6687 92.4043 87.8599 86.8549L91.2532 80.5007L103.529 85.4917V72.1896L114.299 58.1489Z" fill="url(#paint5_linear)"/>
<path d="M114.299 58.1489C120.406 63.9974 121.735 76.2748 120.608 85.4125C119.482 94.5502 117.391 103.108 113.047 102.844C108.702 102.58 93.6687 92.4043 87.8599 86.8549L91.2532 80.5007L103.529 85.4917V72.1896L114.299 58.1489Z" fill="url(#paint6_linear)"/>
<g filter="url(#filter0_d)">
<path d="M82.718 83.6844H26.3917V86.0634H82.718V83.6844Z" fill="url(#paint7_linear)"/>
<path d="M58.2119 54.4859H15.3779L26.3917 83.6844H69.2212L58.2119 54.4859Z" fill="url(#paint8_linear)"/>
</g>
<path d="M39.2532 86.0634C39.2532 86.0634 46.6438 89.6736 51.3395 89.7615C56.0352 89.8495 61.1906 86.0634 61.1906 86.0634H39.2532Z" fill="url(#paint9_linear)"/>
<path d="M91.2533 80.5007C91.2533 80.5007 84.755 77.2994 81.9565 76.9476C79.1579 76.5958 70.4695 83.6844 70.4695 83.6844H82.7271L87.8734 86.8549L91.2533 80.5007Z" fill="url(#paint10_linear)"/>
<path d="M93.6192 43.1231C93.6514 45.531 93.832 47.9348 94.16 50.3216C91.2533 51.9178 87.8509 52.7753 84.2097 53.193L83.9979 50.3216L83.8717 48.5626V48.5054C83.1698 48.49 82.4778 48.3407 81.8348 48.0657C77.4365 46.2144 76.4901 37.1646 76.4901 37.1646C78.2521 37.0943 80.5459 33.9941 80.5459 33.9941C81.8303 35.9114 87.7878 39.614 91.2443 38.6202C94.7007 37.6264 94.4303 35.2474 94.4303 35.2474C95.0555 35.5046 95.5962 35.9244 95.9936 36.4611C96.3909 36.9977 96.6296 37.6304 96.6836 38.2904C96.8683 40.6122 93.6192 43.1231 93.6192 43.1231Z" fill="url(#paint11_linear)"/>
<path opacity="0.15" d="M90.6675 45.678C89.8518 47.0236 86.161 49.1651 84.0024 50.3304L83.8762 48.5714C84.0114 48.5714 84.1421 48.5275 84.2683 48.5011C86.0306 48.1967 87.7221 47.5845 89.2614 46.6938C89.2798 46.6867 89.2967 46.6763 89.311 46.663C89.7736 46.3961 90.207 46.0837 90.6044 45.7307L90.6675 45.678Z" fill="black"/>
<path opacity="0.15" d="M98.4636 83.4381L108.026 87.2551L103.52 84.0846V72.2117C103.52 72.2117 102.109 82.5279 98.4636 83.4381Z" fill="black"/>
<defs>
<filter id="filter0_d" x="0.37793" y="39.4859" width="107.34" height="71.5775" filterUnits="userSpaceOnUse" color-interpolation-filters="sRGB">
<feFlood flood-opacity="0" result="BackgroundImageFix"/>
<feColorMatrix in="SourceAlpha" type="matrix" values="0 0 0 0 0 0 0 0 0 0 0 0 0 0 0 0 0 0 127 0"/>
<feOffset dx="5" dy="5"/>
<feGaussianBlur stdDeviation="10"/>
<feColorMatrix type="matrix" values="0 0 0 0 0 0 0 0 0 0 0 0 0 0 0 0 0 0 0.2 0"/>
<feBlend mode="normal" in2="BackgroundImageFix" result="effect1_dropShadow"/>
<feBlend mode="normal" in="SourceGraphic" in2="effect1_dropShadow" result="shape"/>
</filter>
<linearGradient id="paint0_linear" x1="95.141" y1="6.82824" x2="93.2374" y2="119.235" gradientUnits="userSpaceOnUse">
<stop stop-color="white" stop-opacity="0"/>
<stop offset="1" stop-color="#64B5F6" stop-opacity="0.6"/>
</linearGradient>
<linearGradient id="paint1_linear" x1="68.793" y1="49.6444" x2="140.653" y2="49.6444" gradientUnits="userSpaceOnUse">
<stop stop-color="#EF9A9A"/>
<stop offset="1" stop-color="#D81B60"/>
</linearGradient>
<linearGradient id="paint2_linear" x1="69.9287" y1="71.9302" x2="67.864" y2="95.9882" gradientUnits="userSpaceOnUse">
<stop stop-color="#7E57C2"/>
<stop offset="1" stop-color="#4527A0"/>
</linearGradient>
<linearGradient id="paint3_linear" x1="6027.3" y1="2199.85" x2="6007.14" y2="2701.27" gradientUnits="userSpaceOnUse">
<stop stop-color="#7E57C2"/>
<stop offset="1" stop-color="#4527A0"/>
</linearGradient>
<linearGradient id="paint4_linear" x1="17991.1" y1="12933.4" x2="21552.7" y2="19626.5" gradientUnits="userSpaceOnUse">
<stop stop-color="#7E57C2"/>
<stop offset="1" stop-color="#4527A0"/>
</linearGradient>
<linearGradient id="paint5_linear" x1="12348.2" y1="8504.8" x2="15513.4" y2="13907.1" gradientUnits="userSpaceOnUse">
<stop stop-color="#7E57C2"/>
<stop offset="1" stop-color="#4527A0"/>
</linearGradient>
<linearGradient id="paint6_linear" x1="107.139" y1="63.1091" x2="102.235" y2="104.095" gradientUnits="userSpaceOnUse">
<stop offset="0.14" stop-color="#7E57C2" stop-opacity="0"/>
<stop offset="0.26" stop-color="#724DBB" stop-opacity="0.21"/>
<stop offset="0.48" stop-color="#5F3DAF" stop-opacity="0.55"/>
<stop offset="0.66" stop-color="#5131A7" stop-opacity="0.79"/>
<stop offset="0.81" stop-color="#482AA2" stop-opacity="0.94"/>
<stop offset="0.91" stop-color="#4527A0"/>
</linearGradient>
<linearGradient id="paint7_linear" x1="26.3917" y1="84.8717" x2="82.718" y2="84.8717" gradientUnits="userSpaceOnUse">
<stop stop-color="#D2D4D5"/>
<stop offset="1" stop-color="#AAACAE"/>
</linearGradient>
<linearGradient id="paint8_linear" x1="477.891" y1="3654.66" x2="3607.98" y2="7301.72" gradientUnits="userSpaceOnUse">
<stop stop-color="#D2D4D5"/>
<stop offset="1" stop-color="#AAACAE"/>
</linearGradient>
<linearGradient id="paint9_linear" x1="40.6502" y1="82.0926" x2="58.5186" y2="89.9425" gradientUnits="userSpaceOnUse">
<stop stop-color="#FFF8E1"/>
<stop offset="1" stop-color="#FFCC80"/>
</linearGradient>
<linearGradient id="paint10_linear" x1="6966.54" y1="2560.49" x2="7416.93" y2="3062.22" gradientUnits="userSpaceOnUse">
<stop stop-color="#FFF8E1"/>
<stop offset="1" stop-color="#FFCC80"/>
</linearGradient>
<linearGradient id="paint11_linear" x1="7116.35" y1="2809" x2="7508.82" y2="3564.02" gradientUnits="userSpaceOnUse">
<stop stop-color="#FFF8E1"/>
<stop offset="1" stop-color="#FFCC80"/>
</linearGradient>
</defs>
</svg>
